<svg xmlns="http://www.w3.org/2000/svg" width="96" height="48" viewBox="0 0 96 48">
    <g fill="none" fill-rule="evenodd">
        <path fill="#4285F4" d="M0 6.41v35.18c0 2.23.232 3.037.668 3.852a4.543 4.543 0 0 0 1.89 1.89c.815.436 1.623.668 3.852.668h83.18c2.23 0 3.037-.232 3.852-.668a4.543 4.543 0 0 0 1.89-1.89c.436-.815.668-1.623.668-3.852V6.41c0-2.23-.232-3.037-.668-3.852a4.543 4.543 0 0 0-1.89-1.89C92.627.232 91.82 0 89.59 0H6.41C4.18 0 3.373.232 2.558.668a4.543 4.543 0 0 0-1.89 1.89C.232 3.373 0 4.18 0 6.41z"/>
        <path fill="#FFF" d="M1 7.41v33.18c0 2.23.232 3.037.668 3.852a4.543 4.543 0 0 0 1.89 1.89c.815.436 1.623.668 3.852.668h81.18c2.23 0 3.037-.232 3.852-.668a4.543 4.543 0 0 0 1.89-1.89c.436-.815.668-1.623.668-3.852V7.41c0-2.23-.232-3.037-.668-3.852a4.543 4.543 0 0 0-1.89-1.89C91.627 1.232 90.82 1 88.59 1H7.41c-2.23 0-3.037.232-3.852.668a4.543 4.543 0 0 0-1.89 1.89C1.232 4.373 1 5.18 1 7.41z"/>
        <path fill="#4285F4" d="M56.64 24.205c0-.639-.057-1.252-.164-1.841H48v3.481h4.844a4.14 4.14 0 0 1-1.796 2.716v2.259h2.908c1.702-1.567 2.684-3.875 2.684-6.615z"/>
        <path fill="#34A853" d="M48 33c2.43 0 4.467-.806 5.956-2.18l-2.908-2.259c-.806.54-1.837.86-3.048.86-2.344 0-4.328-1.584-5.036-3.711h-3.007v2.332A8.997 8.997 0 0 0 48 33z"/>
        <path fill="#FBBC05" d="M42.964 25.71a5.41 5.41 0 0 1-.282-1.71c0-.593.102-1.17.282-1.71v-2.332h-3.007A8.996 8.996 0 0 0 39 24c0 1.452.348 2.827.957 4.042l3.007-2.332z"/>
        <path fill="#EA4335" d="M48 18.58c1.321 0 2.508.454 3.44 1.345l2.582-2.58C52.463 15.891 50.426 15 48 15a8.997 8.997 0 0 0-8.043 4.958l3.007 2.332c.708-2.127 2.692-3.71 5.036-3.71z"/>
        <path d="M39 15h18v18H39z"/>
    </g>
</svg>
