<?xml version="1.0" encoding="UTF-8"?>
<svg width="96px" height="48px" viewBox="0 0 96 48" version="1.1" xmlns="http://www.w3.org/2000/svg" xmlns:xlink="http://www.w3.org/1999/xlink">
    <!-- Generator: Sketch 63.1 (92452) - https://sketch.com -->
    <title>button/3party/line unlink</title>
    <desc>Created with Sketch.</desc>
    <g id="Page-1" stroke="none" stroke-width="1" fill="none" fill-rule="evenodd">
        <g id="button/3party/line-unlink">
            <g id="Buttons/3party/facebook-unlink">
                <rect id="button-bg" fill="#00B900" x="0" y="0" width="96" height="48" rx="5"></rect>
                <g id="logo_line" transform="translate(38.000000, 14.000000)" fill="#FFFFFF">
                    <path d="M9.99988556,1.01973985e-13 C15.5141278,1.01973985e-13 20,3.82082139 20,8.51697745 C20,10.3966409 19.3057987,12.0891788 17.8567423,13.757215 L17.8567423,13.757215 C15.7590323,16.291698 11.0673945,19.3784297 9.99988556,19.8504475 C8.93283437,20.3224652 9.09007679,19.5499415 9.13379339,19.2847468 C9.15919937,19.1266869 9.27638732,18.3861115 9.27638732,18.3861115 C9.31003307,18.1182745 9.34505213,17.7027067 9.24411485,17.4372718 C9.13219121,17.1449331 8.6888454,16.9935992 8.36314531,16.9198539 C3.55752395,16.253264 3.55271368e-15,12.7271834 3.55271368e-15,8.51697745 C3.55271368e-15,3.82082139 4.48632998,1.01973985e-13 9.99988556,1.01973985e-13 Z M7.96811664,6.24764111 L7.26659114,6.24764111 C7.15924514,6.24764111 7.07181195,6.3391621 7.07181195,6.45182181 L7.07181195,11.0247488 C7.07181195,11.1374085 7.15924514,11.2286893 7.26659114,11.2286893 L7.96811664,11.2286893 C8.07569151,11.2286893 8.16289582,11.1374085 8.16289582,11.0247488 L8.16289582,6.45182181 C8.16289582,6.3391621 8.07569151,6.24764111 7.96811664,6.24764111 Z M9.74795436,6.24788132 L9.03956238,6.24764111 C8.93221639,6.24764111 8.84478319,6.3391621 8.84478319,6.45182181 L8.84478319,11.0247488 C8.84478319,11.1374085 8.93221639,11.2286893 9.03956238,11.2286893 L9.74108788,11.2286893 C9.84866275,11.2286893 9.93586706,11.1374085 9.93586706,11.0247488 L9.93586706,8.30890531 L11.9351575,11.142453 C11.9491194,11.162871 11.9660567,11.1796859 11.9845962,11.1928976 L11.9866561,11.1945791 L11.9987869,11.2022659 L11.9987869,11.2022659 C12.0003891,11.2032268 12.0022202,11.2041876 12.0042801,11.2053887 C12.0072556,11.2070702 12.0102311,11.2087516 12.0134354,11.2101929 L12.0230485,11.2142765 L12.0230485,11.2142765 C12.0251084,11.2149972 12.0269395,11.215958 12.0287706,11.2166787 C12.0333482,11.2183602 12.037697,11.2198014 12.0420458,11.2212427 L12.0450212,11.2217231 C12.0605853,11.2262872 12.0772937,11.2286893 12.0949177,11.2286893 L12.7962143,11.2286893 C12.9037892,11.2286893 12.9909935,11.1374085 12.9909935,11.0247488 L12.9909935,6.45182181 C12.9909935,6.3391621 12.9037892,6.24764111 12.7962143,6.24764111 L12.0949177,6.24764111 C11.9871139,6.24764111 11.9001385,6.3391621 11.9001385,6.45182181 L11.9001385,9.16862615 L9.90313684,6.33844147 C9.89855918,6.33123509 9.89329488,6.32426892 9.88803058,6.31778318 C9.88757281,6.31730276 9.88711505,6.31682233 9.88688617,6.31634191 L9.88093521,6.30991622 L9.87155102,6.30024766 C9.86811778,6.29736511 9.86468454,6.29400214 9.86102242,6.2913598 L9.855987,6.28703597 C9.85278264,6.28463385 9.8493494,6.28223172 9.84591616,6.27982959 C9.8440851,6.27838832 9.84202515,6.27742747 9.83996521,6.27622641 C9.83653197,6.27406449 9.83309873,6.27190258 9.82966549,6.26998088 C9.82760554,6.26902003 9.8255456,6.26781896 9.82348565,6.26685811 C9.81982353,6.26517663 9.81616141,6.26325493 9.8122704,6.26205386 C9.80998157,6.26109301 9.80815051,6.26037237 9.80586169,6.25965174 L9.80022545,6.25742977 C9.79212872,6.25484749 9.79006878,6.25436706 9.78755107,6.25364642 C9.78388895,6.25268557 9.78022682,6.25196493 9.77633582,6.2512443 C9.77358922,6.25076387 9.77084263,6.25028345 9.76809604,6.25004323 L9.7580252,6.24860196 L9.7580252,6.24860196 C9.75459196,6.24836175 9.7513876,6.24812153 9.74795436,6.24788132 Z M4.17662879,6.24768915 L3.47510328,6.24768915 C3.36775729,6.24768915 3.2803241,6.33896993 3.2803241,6.45186985 L3.2803241,11.0247968 C3.2803241,11.0795653 3.30138131,11.1292893 3.33502707,11.1658016 L3.33754478,11.1691646 C3.33846031,11.1698853 3.33960472,11.1706059 3.34029137,11.171807 C3.3755393,11.2071182 3.42268914,11.2289775 3.4748744,11.2289775 L6.27731429,11.2289775 C6.38488916,11.2289775 6.47186459,11.1372163 6.47186459,11.0243164 L6.47186459,10.2883051 C6.47186459,10.1754051 6.38488916,10.0836439 6.27731429,10.0836439 L4.37140797,10.0836439 L4.37140797,6.45186985 C4.37140797,6.33896993 4.28420366,6.24768915 4.17662879,6.24768915 Z M16.6697795,6.24766513 L13.8673396,6.24766513 C13.8146966,6.24766513 13.7673178,6.26976469 13.7322988,6.30531615 C13.7288655,6.30867913 13.7277211,6.30988019 13.7270345,6.31108125 C13.6936176,6.34759356 13.6727893,6.39707736 13.6727893,6.45184583 L13.6727893,11.0247728 C13.6727893,11.0795413 13.6936176,11.1292653 13.7274922,11.1657776 L13.7285794,11.1675492 L13.7329854,11.1715427 C13.7561789,11.1950836 13.7848655,11.2127525 13.816943,11.2219162 L13.8677973,11.2289535 L16.6697795,11.2289535 C16.7773543,11.2289535 16.8643298,11.1371923 16.8643298,11.0242924 L16.8643298,10.288281 C16.8643298,10.1753811 16.7773543,10.0836199 16.6697795,10.0836199 L14.764102,10.0836199 L14.764102,9.31061581 L16.6697795,9.31061581 C16.7773543,9.31061581 16.8643298,9.21933503 16.8643298,9.1061949 L16.8643298,8.37018354 C16.8643298,8.25728362 16.7773543,8.16552242 16.6697795,8.16552242 L14.764102,8.16552242 L14.764102,7.39275853 L16.6697795,7.39275853 C16.7773543,7.39275853 16.8643298,7.30123753 16.8643298,7.18833762 L16.8643298,6.45208604 C16.8643298,6.33918612 16.7773543,6.24766513 16.6697795,6.24766513 Z" id="Combined-Shape"></path>
                </g>
            </g>
        </g>
    </g>
</svg>