<svg id="圖層_1" data-name="圖層 1" xmlns="http://www.w3.org/2000/svg" viewBox="0 0 48 48"><defs><style>.cls-1{fill:#555;}</style></defs><title>icon-humanities</title><g id="_16" data-name="16"><path class="cls-1" d="M8.38,38.45a2.44,2.44,0,0,1-1.11-.26L2.42,35.8a2.48,2.48,0,0,1-1.28-1.47,2.46,2.46,0,0,1,.15-1.95L12.64,10.06A2.53,2.53,0,0,1,16,8.94l4.86,2.39A2.53,2.53,0,0,1,22,14.75L10.63,37.07A2.53,2.53,0,0,1,8.38,38.45Zm6.51-28.27a1,1,0,0,0-.91.56L2.62,33.06a1.06,1.06,0,0,0-.06.8,1,1,0,0,0,.52.59l4.86,2.4a1,1,0,0,0,1.35-.46l9.64-18.94h0l1.72-3.38a1,1,0,0,0,.06-.79,1,1,0,0,0-.52-.6l-4.85-2.39A1,1,0,0,0,14.89,10.18Z"/><path class="cls-1" d="M19.75,18.24a.8.8,0,0,1-.33-.08l-8-4a.75.75,0,0,1-.34-1,.73.73,0,0,1,1-.34l8,4a.75.75,0,0,1,.34,1A.77.77,0,0,1,19.75,18.24Z"/><path class="cls-1" d="M18.33,21.05A.81.81,0,0,1,18,21l-8-4a.75.75,0,0,1,.66-1.35l8,4a.75.75,0,0,1-.33,1.43Z"/><path class="cls-1" d="M8.3,34.18A.8.8,0,0,1,8,34.1L5.28,32.78a.76.76,0,0,1-.34-1,.75.75,0,0,1,1-.34l2.69,1.32a.75.75,0,0,1-.33,1.43Z"/><path class="cls-1" d="M38.9,39.32H17.79a2.53,2.53,0,0,1-2.52-2.53V31.5A2.52,2.52,0,0,1,17.79,29H20.4a.75.75,0,0,1,0,1.5H17.79a1,1,0,0,0-1,1v5.29a1,1,0,0,0,1,1H38.9a1,1,0,0,0,1-1V29.73a.75.75,0,0,1,1.5,0v7.06A2.53,2.53,0,0,1,38.9,39.32Z"/><path class="cls-1" d="M35.34,39.32a.76.76,0,0,1-.75-.75V29.73a.75.75,0,0,1,1.5,0v8.84A.75.75,0,0,1,35.34,39.32Z"/><path class="cls-1" d="M32.15,39.32a.76.76,0,0,1-.75-.75V29.73a.75.75,0,1,1,1.5,0v8.84A.75.75,0,0,1,32.15,39.32Z"/><path class="cls-1" d="M20.05,36.8a.75.75,0,0,1-.75-.75v-3.8a.75.75,0,0,1,1.5,0v3.8A.76.76,0,0,1,20.05,36.8Z"/><path class="cls-1" d="M41.68,30.48H27.57a.75.75,0,0,1,0-1.5H41.68a1,1,0,0,0,1-1V24.33a.75.75,0,1,1,1.5,0V28A2.54,2.54,0,0,1,41.68,30.48Z"/><path class="cls-1" d="M25.46,30.48H20.58A2.54,2.54,0,0,1,18.05,28V22.66a2.54,2.54,0,0,1,2.53-2.53H43.46a.75.75,0,0,1,0,1.5H20.58a1,1,0,0,0-1,1V28a1,1,0,0,0,1,1h4.88a.75.75,0,0,1,0,1.5Z"/><path class="cls-1" d="M22.83,28a.75.75,0,0,1-.75-.75V23.4a.75.75,0,0,1,1.5,0v3.8A.74.74,0,0,1,22.83,28Z"/><path class="cls-1" d="M44.47,21.63H23.36a2.52,2.52,0,0,1-2.52-2.53V13.72a.75.75,0,0,1,1.5,0V19.1a1,1,0,0,0,1,1H44.47a1,1,0,0,0,1-1V13.82a1,1,0,0,0-1-1H23.54a.75.75,0,0,1,0-1.5H44.47A2.52,2.52,0,0,1,47,13.82V19.1A2.52,2.52,0,0,1,44.47,21.63Z"/><path class="cls-1" d="M26.92,21.63a.74.74,0,0,1-.75-.75V12a.75.75,0,0,1,1.5,0v8.84A.75.75,0,0,1,26.92,21.63Z"/><path class="cls-1" d="M30.11,21.63a.74.74,0,0,1-.75-.75V12a.75.75,0,0,1,1.5,0v8.84A.75.75,0,0,1,30.11,21.63Z"/><path class="cls-1" d="M42.21,19.11a.76.76,0,0,1-.75-.75v-3.8a.75.75,0,0,1,1.5,0v3.8A.75.75,0,0,1,42.21,19.11Z"/></g></svg>