<svg id="圖層_1" data-name="圖層 1" xmlns="http://www.w3.org/2000/svg" viewBox="0 0 48 48"><defs><style>.cls-1{fill:#555;}</style></defs><title>icon-handmade</title><path class="cls-1" d="M22.53,40.79A15.56,15.56,0,1,1,38.1,25.23,15.58,15.58,0,0,1,22.53,40.79Zm0-29.62A14.06,14.06,0,1,0,36.6,25.23,14.07,14.07,0,0,0,22.53,11.17Z"/><path class="cls-1" d="M37.35,25.15a.76.76,0,0,1-.56-.24,14.69,14.69,0,0,0-17.87-3,.75.75,0,1,1-.72-1.32A16.2,16.2,0,0,1,37.9,23.9a.75.75,0,0,1,0,1.06A.73.73,0,0,1,37.35,25.15Z"/><path class="cls-1" d="M36.69,30.34a.75.75,0,0,1-.52-.21A14.63,14.63,0,0,0,25.93,26a14.46,14.46,0,0,0-6.66,1.59.76.76,0,0,1-1-.33.75.75,0,0,1,.33-1,16.21,16.21,0,0,1,18.62,2.83.74.74,0,0,1-.52,1.28Z"/><path class="cls-1" d="M28,39.64A14.1,14.1,0,0,1,21.6,13a.75.75,0,1,1,.68,1.34A12.6,12.6,0,0,0,28,38.14a.75.75,0,1,1,0,1.5Z"/><path class="cls-1" d="M13.77,46.1a.8.8,0,0,1-.3-.06.74.74,0,0,1-.39-1l2.8-6.57a.75.75,0,0,1,1.38.59l-2.8,6.57A.76.76,0,0,1,13.77,46.1Z"/><rect class="cls-1" x="25.96" y="7.37" width="7.45" height="1.5" transform="translate(10.54 32.22) rotate(-66.84)"/><rect class="cls-1" x="32.96" y="11.69" width="8.6" height="1.5" transform="translate(1.54 28.78) rotate(-43.05)"/><path class="cls-1" d="M7.72,40.79a.71.71,0,0,1-.54-.24.75.75,0,0,1,0-1.06L11.7,35.3a.75.75,0,0,1,1.06,0,.75.75,0,0,1,0,1.06l-4.48,4.2A.79.79,0,0,1,7.72,40.79Z"/><circle class="cls-1" cx="31.22" cy="4.55" r="1.55"/><circle class="cls-1" cx="40.4" cy="9.51" r="1.55"/></svg>