<svg id="圖層_1" data-name="圖層 1" xmlns="http://www.w3.org/2000/svg" viewBox="0 0 48 48"><defs><style>.cls-1{fill:#555;}</style></defs><title>icon-finance</title><g id="_9" data-name="9"><path class="cls-1" d="M23.13,11.46a2.94,2.94,0,0,1-1.88-.63.75.75,0,0,1-.09-1.06.74.74,0,0,1,1.05-.09,1.5,1.5,0,0,0,.92.28c1,0,1-.3,1-.46s0-.46-1-.46c-1.88,0-2.54-1-2.54-2s.66-2,2.54-2a2.94,2.94,0,0,1,2,.7.75.75,0,0,1,0,1.06.75.75,0,0,1-1.06,0,1.37,1.37,0,0,0-.94-.3c-.48,0-1,.08-1,.46s.56.46,1,.46c2.29,0,2.54,1.37,2.54,2S25.42,11.46,23.13,11.46Z"/><path class="cls-1" d="M23.13,6.62a.75.75,0,0,1-.75-.75V5a.75.75,0,1,1,1.5,0v.83A.76.76,0,0,1,23.13,6.62Z"/><path class="cls-1" d="M23.13,12.35a.75.75,0,0,1-.75-.75v-.83a.75.75,0,0,1,1.5,0v.83A.76.76,0,0,1,23.13,12.35Z"/><path class="cls-1" d="M23.13,14.79A6.51,6.51,0,1,1,29.6,8.28,6.5,6.5,0,0,1,23.13,14.79Zm0-11.52a5,5,0,1,0,5,5A5,5,0,0,0,23.13,3.27Z"/><path class="cls-1" d="M15.6,44.86H10.36a.72.72,0,0,1-.6-.31.73.73,0,0,1-.11-.67l1.42-4.29a14.72,14.72,0,0,1-4.61-6.22H4.85a.74.74,0,0,1-.75-.75v-6a.74.74,0,0,1,.75-.75H6.42a13.42,13.42,0,0,1,4.5-6.11L8.5,17.22a.74.74,0,0,1-.19-.65A.73.73,0,0,1,8.73,16c3.12-1.47,5.29-.25,6.88.64l.53.3a20.31,20.31,0,0,1,6.61-1.08c8.42,0,15.53,5,16.77,11.66a3.55,3.55,0,0,1,3.63.35,13.79,13.79,0,0,1,2.44-1,.75.75,0,0,1,.94.49.76.76,0,0,1-.49.94,12.62,12.62,0,0,0-1.86.74,3.5,3.5,0,0,1,.15,3,2.06,2.06,0,0,1-2.18,1.21,1.94,1.94,0,0,1-1.9-1.69,3.38,3.38,0,0,1,1.5-2.77,2.42,2.42,0,0,0-2.29.5.77.77,0,0,1-.48.18.75.75,0,0,1-.8-.69c-.52-6.42-7.3-11.44-15.43-11.44a18.86,18.86,0,0,0-6.41,1.1.73.73,0,0,1-.58,0c-.29-.14-.58-.3-.88-.47-1.3-.73-2.64-1.48-4.51-1l2.22,2.35a.75.75,0,0,1,.2.59.77.77,0,0,1-.32.54,12,12,0,0,0-4.78,6.35.76.76,0,0,1-.72.54H5.6v4.49H7a.76.76,0,0,1,.7.48l.18.46a13.24,13.24,0,0,0,4.48,5.86.83.83,0,0,1,.33.88L11.4,43.36h3.66l.66-2a.75.75,0,1,1,1.42.47l-.83,2.52A.74.74,0,0,1,15.6,44.86Zm27.3-15c-.88.69-1.19,1.32-1.16,1.63s.33.31.58.34a.55.55,0,0,0,.65-.36A2,2,0,0,0,42.9,29.84Z"/><path class="cls-1" d="M34.7,44.86H29.46a.74.74,0,0,1-.71-.51l-.56-1.71a20.9,20.9,0,0,1-9.44.34.75.75,0,0,1-.6-.88.76.76,0,0,1,.88-.59A19.38,19.38,0,0,0,28.45,41a.75.75,0,0,1,.93.48L30,43.36h3.66l-1.18-3.57a.75.75,0,0,1,.29-.85,11.79,11.79,0,0,0,5.31-7.7.75.75,0,0,1,1.48.25,13.13,13.13,0,0,1-5.48,8.36l1.33,4a.7.7,0,0,1-.11.67A.72.72,0,0,1,34.7,44.86Z"/><path class="cls-1" d="M31.7,36.53a.74.74,0,0,1-.42-1.36,8.91,8.91,0,0,0,3-4.13.75.75,0,0,1,1.45.4,10.31,10.31,0,0,1-3.59,5A.75.75,0,0,1,31.7,36.53Z"/><path class="cls-1" d="M25.59,21.45H20.66a.75.75,0,0,1,0-1.5h4.93a.75.75,0,0,1,0,1.5Z"/><path class="cls-1" d="M11.1,26.82a.75.75,0,0,1-.43-.13.76.76,0,0,1-.19-1.05l1.22-1.77a.75.75,0,1,1,1.24.86L11.71,26.5A.74.74,0,0,1,11.1,26.82Z"/></g></svg>