<svg id="圖層_1" data-name="圖層 1" xmlns="http://www.w3.org/2000/svg" viewBox="0 0 48 48"><defs><style>.cls-1{fill:#555;}</style></defs><title>icon-photography</title><path class="cls-1" d="M40.43,39.73H7.57a3.28,3.28,0,0,1-3.28-3.27V16.6a3.28,3.28,0,0,1,3.28-3.28H13.3l1.12-4.49a.76.76,0,0,1,.73-.56h17.7a.76.76,0,0,1,.73.56l1.12,4.49h5.73a3.28,3.28,0,0,1,3.28,3.28V36.46A3.28,3.28,0,0,1,40.43,39.73ZM7.57,14.82A1.78,1.78,0,0,0,5.79,16.6V36.46a1.78,1.78,0,0,0,1.78,1.77H40.43a1.78,1.78,0,0,0,1.78-1.77V16.6a1.78,1.78,0,0,0-1.78-1.78H34.11a.76.76,0,0,1-.73-.57L32.26,9.77H15.74l-1.12,4.48a.76.76,0,0,1-.73.57Z"/><path class="cls-1" d="M29.06,14.82H18.94a.75.75,0,0,1,0-1.5H29.06a.75.75,0,0,1,0,1.5Z"/><path class="cls-1" d="M43,22.41H32.25a.75.75,0,0,1,0-1.5H43a.75.75,0,0,1,0,1.5Z"/><path class="cls-1" d="M43,32.15H32.25a.75.75,0,0,1,0-1.5H43a.75.75,0,0,1,0,1.5Z"/><path class="cls-1" d="M15.75,22.41H5a.75.75,0,1,1,0-1.5H15.75a.75.75,0,0,1,0,1.5Z"/><path class="cls-1" d="M15.75,32.15H5a.75.75,0,1,1,0-1.5H15.75a.75.75,0,0,1,0,1.5Z"/><path class="cls-1" d="M24,36a9.6,9.6,0,1,1,9.6-9.59A9.61,9.61,0,0,1,24,36Zm0-17.69a8.1,8.1,0,1,0,8.1,8.1A8.1,8.1,0,0,0,24,18.28Z"/><g id="_群組_" data-name="&lt;群組&gt;"><path class="cls-1" d="M24,30.92a4.55,4.55,0,1,1,4.54-4.54A4.55,4.55,0,0,1,24,30.92Zm0-7.59a3,3,0,1,0,3,3.05A3,3,0,0,0,24,23.33Z"/></g></svg>