<svg id="圖層_1" data-name="圖層 1" xmlns="http://www.w3.org/2000/svg" viewBox="0 0 48 48"><defs><style>.cls-1{fill:#555;}</style></defs><title>icon-lifestyle</title><g id="_13" data-name="13"><path class="cls-1" d="M29.71,21.87H18.11a.75.75,0,0,1,0-1.5h11.6a.75.75,0,0,1,0,1.5Z"/><path class="cls-1" d="M30.56,27.63h-10a.75.75,0,0,1,0-1.5h10a.75.75,0,0,1,0,1.5Z"/><path class="cls-1" d="M1.48,25.65a.75.75,0,0,1-.75-.75V23.1a.75.75,0,0,1,1.5,0v1.8A.76.76,0,0,1,1.48,25.65Z"/><path class="cls-1" d="M46.52,25.65a.76.76,0,0,1-.75-.75V23.1a.75.75,0,0,1,1.5,0v1.8A.75.75,0,0,1,46.52,25.65Z"/><path class="cls-1" d="M42.54,32.25H39.12a.75.75,0,0,1,0-1.5h3.42a.21.21,0,0,0,.23-.19V17.44a.21.21,0,0,0-.23-.19H41.18a.75.75,0,0,1,0-1.5h1.36a1.71,1.71,0,0,1,1.73,1.69V30.56A1.71,1.71,0,0,1,42.54,32.25Z"/><path class="cls-1" d="M36.81,36.23H32A2.21,2.21,0,0,1,29.81,34V14A2.21,2.21,0,0,1,32,11.77h4.79A2.22,2.22,0,0,1,39,14V34A2.22,2.22,0,0,1,36.81,36.23ZM32,13.27a.71.71,0,0,0-.71.71V34a.71.71,0,0,0,.71.71h4.79a.71.71,0,0,0,.71-.71V14a.71.71,0,0,0-.71-.71Z"/><path class="cls-1" d="M8.7,32.25H5.28a1.71,1.71,0,0,1-1.73-1.69V17.44a1.71,1.71,0,0,1,1.73-1.69H6.64a.75.75,0,1,1,0,1.5H5.28a.21.21,0,0,0-.23.19V30.56a.21.21,0,0,0,.23.19H8.7a.75.75,0,1,1,0,1.5Z"/><path class="cls-1" d="M15.66,36.23H11.15A2.32,2.32,0,0,1,8.8,34V14.05a2.32,2.32,0,0,1,2.35-2.28h4.51A2.32,2.32,0,0,1,18,14.05v3.84a.75.75,0,0,1-1.5,0V14.05a.82.82,0,0,0-.85-.78H11.15a.82.82,0,0,0-.85.78V34a.82.82,0,0,0,.85.78h4.51a.82.82,0,0,0,.85-.78V21.12a.75.75,0,0,1,1.5,0V34A2.32,2.32,0,0,1,15.66,36.23Z"/></g></svg>