<svg id="圖層_1" data-name="圖層 1" xmlns="http://www.w3.org/2000/svg" viewBox="0 0 48 48"><defs><style>.cls-1{fill:#555;}</style></defs><title>icon-programming</title><path class="cls-1" d="M25.84,44H7.31a2.43,2.43,0,0,1-2.43-2.42V6.41A2.43,2.43,0,0,1,7.31,4H25.84a2.44,2.44,0,0,1,2.44,2.42v5h-1.5v-5a.93.93,0,0,0-.94-.92H7.31a.93.93,0,0,0-.93.92V41.59a.93.93,0,0,0,.93.92H25.84a.93.93,0,0,0,.94-.92V28.19h1.5v13.4A2.44,2.44,0,0,1,25.84,44Z"/><rect class="cls-1" x="5.63" y="10.69" width="21.06" height="1.5"/><rect class="cls-1" x="5.63" y="35.81" width="21.9" height="1.5"/><rect class="cls-1" x="14.05" y="7.34" width="5.05" height="1.5"/><rect class="cls-1" x="14.05" y="39.16" width="5.05" height="1.5"/><rect class="cls-1" x="8.16" y="14.04" width="1.68" height="1.5"/><rect class="cls-1" x="11.52" y="14.04" width="1.68" height="1.5"/><rect class="cls-1" x="8.16" y="17.39" width="1.68" height="1.5"/><path class="cls-1" d="M34.26,31.45H32.58a2.43,2.43,0,0,1-2.43-2.23A10.73,10.73,0,0,1,29,28.77a2.43,2.43,0,0,1-3.29-.14l-1.19-1.18a2.42,2.42,0,0,1-.72-1.72,2.34,2.34,0,0,1,.58-1.56,10.63,10.63,0,0,1-.46-1.1,2.44,2.44,0,0,1-2.24-2.42V19A2.43,2.43,0,0,1,24,16.56a9.78,9.78,0,0,1,.46-1.1,2.38,2.38,0,0,1-.58-1.57,2.42,2.42,0,0,1,.72-1.72L25.75,11A2.43,2.43,0,0,1,29,10.86a10.8,10.8,0,0,1,1.11-.46,2.43,2.43,0,0,1,2.43-2.22h1.68a2.43,2.43,0,0,1,2.43,2.22,10.8,10.8,0,0,1,1.11.46,2.45,2.45,0,0,1,3.3.13l1.19,1.19A2.37,2.37,0,0,1,43,13.89a2.43,2.43,0,0,1-.57,1.57,9.74,9.74,0,0,1,.45,1.1A2.43,2.43,0,0,1,45.12,19v1.67a2.44,2.44,0,0,1-2.24,2.42,11.55,11.55,0,0,1-.45,1.1A2.38,2.38,0,0,1,43,25.73a2.41,2.41,0,0,1-.71,1.72L41.1,28.63a2.45,2.45,0,0,1-3.3.14,10.73,10.73,0,0,1-1.11.45A2.43,2.43,0,0,1,34.26,31.45ZM28.91,27.1a.68.68,0,0,1,.36.1A8.91,8.91,0,0,0,31.1,28a.75.75,0,0,1,.55.72V29a.93.93,0,0,0,.93.93h1.68A.94.94,0,0,0,35.2,29v-.35a.74.74,0,0,1,.54-.72,9,9,0,0,0,1.83-.75.76.76,0,0,1,.89.12l.25.25a1,1,0,0,0,1.33,0l1.19-1.18a.93.93,0,0,0,0-1.31L41,24.83a.74.74,0,0,1-.12-.9,8.52,8.52,0,0,0,.75-1.81.74.74,0,0,1,.72-.54h.36a.93.93,0,0,0,.93-.93V19a.93.93,0,0,0-.93-.93h-.36a.74.74,0,0,1-.72-.55,9,9,0,0,0-.75-1.81.74.74,0,0,1,.12-.9l.25-.25a.92.92,0,0,0,0-1.3L40,12.05a.94.94,0,0,0-1.32,0l-.26.25a.74.74,0,0,1-.89.13,8,8,0,0,0-1.83-.75A.75.75,0,0,1,35.2,11V10.6a.93.93,0,0,0-.94-.92H32.58a.92.92,0,0,0-.93.92V11a.76.76,0,0,1-.55.72,8.18,8.18,0,0,0-1.83.75.74.74,0,0,1-.89-.13l-.25-.25a1,1,0,0,0-1.33,0l-1.19,1.19a.93.93,0,0,0-.27.65.91.91,0,0,0,.27.65l.25.25a.76.76,0,0,1,.13.9,7.92,7.92,0,0,0-.75,1.82.75.75,0,0,1-.72.54h-.36a.94.94,0,0,0-.94.93v1.67a.94.94,0,0,0,.94.93h.36a.75.75,0,0,1,.72.54A8,8,0,0,0,26,23.93a.77.77,0,0,1-.12.9l-.25.25a.92.92,0,0,0-.28.65,1,1,0,0,0,.27.66l1.19,1.18a1,1,0,0,0,1.33,0l.25-.25A.75.75,0,0,1,28.91,27.1Z"/><path class="cls-1" d="M33.42,25.59a5.78,5.78,0,1,1,5.81-5.78A5.79,5.79,0,0,1,33.42,25.59Zm0-10a4.28,4.28,0,1,0,4.31,4.27A4.29,4.29,0,0,0,33.42,15.54Z"/><path class="cls-1" d="M8.62,37,7.56,36,13,30.57a.76.76,0,0,1,.85-.15,4.36,4.36,0,0,0,4.93-.83A4.28,4.28,0,0,0,20,25.75l-2.53,2.52a.74.74,0,0,1-1.05,0L14,25.88a.75.75,0,0,1,0-1.06l2.52-2.51a4.33,4.33,0,0,0-3.86,1.19,4.28,4.28,0,0,0-.84,4.89.78.78,0,0,1-.15.86l-5.43,5.4L5.16,33.58l5.07-5a5.81,5.81,0,0,1,1.35-6.11,5.89,5.89,0,0,1,6.64-1.13.75.75,0,0,1,.41.55.74.74,0,0,1-.21.66l-2.85,2.84,1.34,1.33,2.85-2.85a.77.77,0,0,1,.66-.2A.75.75,0,0,1,21,24a5.79,5.79,0,0,1-1.14,6.61A5.87,5.87,0,0,1,13.69,32Z"/><rect class="cls-1" x="40.25" y="31.54" width="1.5" height="1.67"/><rect class="cls-1" x="40.25" y="34.89" width="1.5" height="5.02"/><rect class="cls-1" x="36.88" y="33.21" width="1.5" height="1.67"/><rect class="cls-1" x="36.88" y="36.56" width="1.5" height="1.67"/><rect class="cls-1" x="33.51" y="33.21" width="1.5" height="1.67"/></svg>