<svg id="圖層_1" data-name="圖層 1" xmlns="http://www.w3.org/2000/svg" viewBox="0 0 48 48"><defs><style>.cls-1{fill:#555;}</style></defs><title>icon-career</title><path class="cls-1" d="M36.15,18.39a4,4,0,1,1,4-4A4,4,0,0,1,36.15,18.39Zm0-6.55a2.53,2.53,0,1,0,2.49,2.52A2.51,2.51,0,0,0,36.15,11.84Z"/><path class="cls-1" d="M37.77,44.57H34.53a2.38,2.38,0,0,1-2.37-2.39V23.3H25.62a.76.76,0,0,1-.75-.75V19.27a.76.76,0,0,1,.75-.75H39.39a4,4,0,0,1,4,4v8.18a.76.76,0,0,1-.75.75H40.14v10.7A2.38,2.38,0,0,1,37.77,44.57ZM26.37,21.8h6.54a.75.75,0,0,1,.75.75V42.18a.88.88,0,0,0,.87.89h3.24a.88.88,0,0,0,.87-.89V27.45a.75.75,0,0,1,1.5,0V30h1.74V22.55A2.51,2.51,0,0,0,39.39,20h-13Z"/><path class="cls-1" d="M36.15,44.57a.75.75,0,0,1-.75-.75V33.18a.75.75,0,0,1,1.5,0V43.82A.76.76,0,0,1,36.15,44.57Z"/><path class="cls-1" d="M31.29,11.84H5.37a.75.75,0,0,1-.75-.75V6.18a.76.76,0,0,1,.75-.75H36.15a.76.76,0,0,1,.75.75V8.64a.75.75,0,0,1-1.5,0V6.93H6.12v3.41H31.29a.75.75,0,0,1,0,1.5Z"/><path class="cls-1" d="M30.48,33.93H8.61a2.39,2.39,0,0,1-2.37-2.39V11.09a.75.75,0,0,1,1.5,0V31.54a.88.88,0,0,0,.87.89H30.48a.75.75,0,0,1,0,1.5Z"/><path class="cls-1" d="M20.76,44.57a3.21,3.21,0,1,1,3.18-3.21A3.2,3.2,0,0,1,20.76,44.57Zm0-4.91a1.71,1.71,0,1,0,1.68,1.7A1.69,1.69,0,0,0,20.76,39.66Z"/><path class="cls-1" d="M20.76,39.66a.76.76,0,0,1-.75-.75V33.18a.75.75,0,0,1,1.5,0v5.73A.76.76,0,0,1,20.76,39.66Z"/><path class="cls-1" d="M20.76,29.84a7.93,7.93,0,0,1-5.69-2.38,8.18,8.18,0,0,1,0-11.47,8,8,0,0,1,5.69-2.38h0A8,8,0,0,1,26.45,16a.75.75,0,0,1-1.07,1.06,6.48,6.48,0,0,0-4.62-1.94h0a6.45,6.45,0,0,0-4.62,1.94,6.68,6.68,0,0,0,0,9.36,6.49,6.49,0,0,0,9.24,0,.75.75,0,1,1,1.07,1.05A7.93,7.93,0,0,1,20.76,29.84Z"/><path class="cls-1" d="M20.76,22.48H13.47a.75.75,0,0,1,0-1.5H20V14.36a.75.75,0,0,1,1.5,0v7.37A.76.76,0,0,1,20.76,22.48Z"/><path class="cls-1" d="M24,25.75a.73.73,0,0,1-.53-.22l-3.24-3.27a.77.77,0,0,1,0-1.07.75.75,0,0,1,1.06,0l3.24,3.27a.75.75,0,0,1,0,1.06A.74.74,0,0,1,24,25.75Z"/><path class="cls-1" d="M12.66,15.11H9.42a.75.75,0,0,1,0-1.5h3.24a.75.75,0,0,1,0,1.5Z"/><path class="cls-1" d="M12.66,30.66H9.42a.75.75,0,1,1,0-1.5h3.24a.75.75,0,0,1,0,1.5Z"/><path class="cls-1" d="M12.66,27.39H9.42a.75.75,0,0,1,0-1.5h3.24a.75.75,0,0,1,0,1.5Z"/></svg>