<svg id="圖層_1" data-name="圖層 1" xmlns="http://www.w3.org/2000/svg" viewBox="0 0 48 48"><defs><style>.cls-1{fill:#555;}</style></defs><title>icon-art</title><path class="cls-1" d="M42.5,33.25H5.5a.76.76,0,0,1-.75-.75V6.5a.76.76,0,0,1,.75-.75h37a.76.76,0,0,1,.75.75v8.26a.75.75,0,0,1-1.5,0V7.25H6.25v24.5h35.5V18.26a.75.75,0,0,1,1.5,0V32.5A.76.76,0,0,1,42.5,33.25Z"/><path class="cls-1" d="M25.5,6.75A.76.76,0,0,1,24.75,6V3.75h-1.5V6a.75.75,0,0,1-1.5,0V3a.76.76,0,0,1,.75-.75h3a.76.76,0,0,1,.75.75V6A.76.76,0,0,1,25.5,6.75Z"/><path class="cls-1" d="M14.29,20.81c-2,0-4.63-.79-7.06-3.79a.75.75,0,0,1,0-.94c5.13-6.34,10.92-2.84,11-2.8a.75.75,0,0,1,.35.64v5.26a.75.75,0,0,1-.35.64A8.19,8.19,0,0,1,14.29,20.81ZM8.8,16.55c3.52,3.93,7.13,2.71,8.26,2.18V14.37C15.93,13.83,12.32,12.61,8.8,16.55Z"/><path class="cls-1" d="M34.22,20H17.81a.75.75,0,0,1,0-1.5H34.22a12,12,0,0,0,1.58-.11L45,17.18a.71.71,0,0,0,.6-.7.69.69,0,0,0-.62-.69l-9.39-1.06a9.42,9.42,0,0,0-1.06-.06H17.81a.75.75,0,0,1,0-1.5H34.49a10.14,10.14,0,0,1,1.23.07l9.39,1.06a2.2,2.2,0,0,1,0,4.36L36,19.89A13.31,13.31,0,0,1,34.22,20Z"/><path class="cls-1" d="M14,45.06H9.59A.75.75,0,0,1,9,44.77a.76.76,0,0,1-.13-.65L12.06,32.3a.75.75,0,0,1,1.45.4L10.57,43.56H13.4l3-11.29a.75.75,0,0,1,1.45.4L14.7,44.51A.75.75,0,0,1,14,45.06Z"/><path class="cls-1" d="M38.41,45.06H34a.75.75,0,0,1-.73-.55L30.11,32.7a.75.75,0,0,1,1.45-.4l3,11.26h2.83L34.49,32.7a.75.75,0,0,1,1.45-.4l3.19,11.82a.76.76,0,0,1-.13.65A.75.75,0,0,1,38.41,45.06Z"/><path class="cls-1" d="M32.56,39.65H15.44a.75.75,0,1,1,0-1.5H32.56a.75.75,0,0,1,0,1.5Z"/><path class="cls-1" d="M26.81,36.94H16.3a.75.75,0,1,1,0-1.5H26.81a.75.75,0,1,1,0,1.5Z"/><path class="cls-1" d="M31.83,36.94H29.38a.75.75,0,1,1,0-1.5h2.45a.75.75,0,0,1,0,1.5Z"/><rect class="cls-1" x="38.41" y="29.02" width="1.5" height="1.5"/><rect class="cls-1" x="38.41" y="25.96" width="1.5" height="1.5"/><rect class="cls-1" x="35.34" y="29.02" width="1.5" height="1.5"/><rect class="cls-1" x="32.56" y="29.02" width="1.5" height="1.5"/><rect class="cls-1" x="35.34" y="25.96" width="1.5" height="1.5"/><rect class="cls-1" x="38.41" y="22.9" width="1.5" height="1.5"/></svg>