<svg id="圖層_1" data-name="圖層 1" xmlns="http://www.w3.org/2000/svg" viewBox="0 0 48 48"><defs><style>.cls-1{fill:#555;}</style></defs><title>icon-marketing</title><g id="_11" data-name="11"><path class="cls-1" d="M45,39.52H3a.75.75,0,0,1-.75-.75V9.23a.75.75,0,0,1,1.5,0V38H45a.75.75,0,0,1,0,1.5Z"/><path class="cls-1" d="M6.38,33.92a.76.76,0,0,1-.51-.2.75.75,0,0,1,0-1.06L21.12,16.53a.75.75,0,0,1,.55-.23h0a.72.72,0,0,1,.55.24l5.93,6.38L40.61,8.73a.76.76,0,0,1,1.06-.07.75.75,0,0,1,.06,1.06l-13,14.81a.74.74,0,0,1-.55.26.7.7,0,0,1-.56-.24l-6-6.41L6.93,33.69A.78.78,0,0,1,6.38,33.92Z"/><path class="cls-1" d="M9.58,35.88a.76.76,0,0,1-.75-.75v-1.6a.75.75,0,0,1,1.5,0v1.6A.75.75,0,0,1,9.58,35.88Z"/><path class="cls-1" d="M15.17,35.88a.75.75,0,0,1-.75-.75V29.05a.75.75,0,0,1,1.5,0v6.08A.76.76,0,0,1,15.17,35.88Z"/><path class="cls-1" d="M21.67,35.88a.75.75,0,0,1-.75-.75V23.26a.75.75,0,0,1,1.5,0V35.13A.76.76,0,0,1,21.67,35.88Z"/><path class="cls-1" d="M28.17,35.88a.75.75,0,0,1-.75-.75V28.26a.75.75,0,0,1,1.5,0v6.87A.76.76,0,0,1,28.17,35.88Z"/><path class="cls-1" d="M34.67,35.88a.75.75,0,0,1-.75-.75V22.82a.75.75,0,0,1,1.5,0V35.13A.76.76,0,0,1,34.67,35.88Z"/><path class="cls-1" d="M41.17,35.88a.76.76,0,0,1-.75-.75V18a.75.75,0,0,1,1.5,0V35.13A.76.76,0,0,1,41.17,35.88Z"/><path class="cls-1" d="M41.17,14.53a.75.75,0,0,1-.75-.75V10H36.61a.75.75,0,0,1,0-1.5h4.56a.75.75,0,0,1,.75.75v4.55A.75.75,0,0,1,41.17,14.53Z"/></g></svg>