<svg id="圖層_1" data-name="圖層 1" xmlns="http://www.w3.org/2000/svg" viewBox="0 0 48 48"><defs><style>.cls-1{fill:#555;}</style></defs><title>icon-design</title><path class="cls-1" d="M33.21,24.75a9.8,9.8,0,0,1-2.08-.22.74.74,0,0,1-.58-.89.76.76,0,0,1,.89-.58,8.43,8.43,0,1,0-6.53-6.64.75.75,0,0,1-.6.88.76.76,0,0,1-.88-.6,9.94,9.94,0,1,1,9.78,8.05Z"/><path class="cls-1" d="M33.19,17.4A2.6,2.6,0,1,1,35,16.64h0A2.62,2.62,0,0,1,33.19,17.4Zm1.31-1.29h0Zm-1.31-2.39A1.09,1.09,0,1,0,34,14,1.12,1.12,0,0,0,33.19,13.72Z"/><path class="cls-1" d="M32.4,26.51a.71.71,0,0,1-.53-.22L21.71,16.13a.74.74,0,0,1,0-1.06.75.75,0,0,1,1.06,0L32.93,25.23a.75.75,0,0,1,0,1.06A.74.74,0,0,1,32.4,26.51Z"/><path class="cls-1" d="M30.56,28.35a.79.79,0,0,1-.53-.22L19.87,18a.75.75,0,0,1,0-1.06.74.74,0,0,1,1.06,0L31.09,27.06a.76.76,0,0,1-.53,1.29Z"/><path class="cls-1" d="M28.73,30.18A.79.79,0,0,1,28.2,30L18,19.8a.75.75,0,0,1,0-1.06.74.74,0,0,1,1.06,0L29.26,28.9a.74.74,0,0,1,0,1.06A.77.77,0,0,1,28.73,30.18Z"/><path class="cls-1" d="M5.61,43.14a.77.77,0,0,1-.53-.22.82.82,0,0,1-.22-.55l.21-7.53a.73.73,0,0,1,.22-.52L23.64,16a.75.75,0,0,1,1.06,1.06L6.56,35.18l-.17,6.44,6.44-.18,18-18a.74.74,0,0,1,1.06,0,.75.75,0,0,1,0,1.06L13.67,42.71a.68.68,0,0,1-.5.22l-7.54.21Z"/><path class="cls-1" d="M27.32,21.43a.71.71,0,0,1-.53-.22.74.74,0,0,1,0-1.06l4.57-4.57a.75.75,0,1,1,1.06,1.06l-4.57,4.57A.74.74,0,0,1,27.32,21.43Z"/><path class="cls-1" d="M9.78,39a.79.79,0,0,1-.53-.22.75.75,0,0,1,0-1.06L22.83,24.11a.75.75,0,0,1,1.06,1.06L10.31,38.75A.75.75,0,0,1,9.78,39Z"/><path class="cls-1" d="M13.14,42.93a.74.74,0,0,1-.53-.22L5.29,35.39a.75.75,0,0,1,1.06-1.06l7.32,7.32a.74.74,0,0,1,0,1.06A.71.71,0,0,1,13.14,42.93Z"/></svg>