<svg id="圖層_1" data-name="圖層 1" xmlns="http://www.w3.org/2000/svg" viewBox="0 0 48 48"><defs><style>.cls-1{fill:#555;}</style></defs><title>icon-language</title><path class="cls-1" d="M42.27,10.51a.75.75,0,0,1,0-1.5,1.3,1.3,0,1,0,0-2.59H5.85A1.3,1.3,0,1,0,5.85,9H39a.75.75,0,0,1,0,1.5H5.85a2.8,2.8,0,1,1,0-5.59H42.27a2.8,2.8,0,1,1,0,5.59Z"/><path class="cls-1" d="M40.83,33.7H7.29a2.08,2.08,0,0,1-2.08-2.07V11.48a.75.75,0,0,1,1.5,0V31.63a.59.59,0,0,0,.58.57H40.83a.58.58,0,0,0,.58-.57V9.76a.75.75,0,1,1,1.5,0V31.63A2.08,2.08,0,0,1,40.83,33.7Z"/><path class="cls-1" d="M17.27,25.18a.74.74,0,0,1-.7-.49L14.3,18.56,12,24.69a.75.75,0,0,1-1.4-.52l3-8a.74.74,0,0,1,.7-.49h0a.74.74,0,0,1,.7.49l3,8a.76.76,0,0,1-.45,1A.75.75,0,0,1,17.27,25.18Z"/><path class="cls-1" d="M16.47,23H13.81a.75.75,0,1,1,0-1.5h2.66a.75.75,0,0,1,0,1.5Z"/><path class="cls-1" d="M24.26,25.18H21.67a.74.74,0,0,1-.75-.75v-8a.75.75,0,1,1,1.5,0v7.27h1.84c1.21,0,1.64-.65,1.64-1.21s-.5-1.25-1.59-1.25a.75.75,0,0,1,0-1.5,1.3,1.3,0,0,0,1.22-1.35,1.07,1.07,0,0,0-.33-.8,2,2,0,0,0-1.36-.41H23.3a.75.75,0,0,1,0-1.5h.54a3.36,3.36,0,0,1,2.38.81,2.56,2.56,0,0,1,.81,1.9,3,3,0,0,1-.74,1.95,2.7,2.7,0,0,1,1.11,2.15,2.59,2.59,0,0,1-.83,1.9A3.28,3.28,0,0,1,24.26,25.18Z"/><path class="cls-1" d="M34.18,25.28c-1.4,0-2.82-.68-2.82-2.22V18.49a2.9,2.9,0,0,1,2.82-2.88,2.86,2.86,0,0,1,2.94,2.86.75.75,0,1,1-1.5,0,1.35,1.35,0,0,0-1.44-1.4,1.42,1.42,0,0,0-1.32,1.38v4.57c0,.69,1.1.72,1.32.72a1.41,1.41,0,0,0,1.44-1.38.75.75,0,0,1,1.5,0A2.89,2.89,0,0,1,34.18,25.28Z"/><path class="cls-1" d="M24.31,21.22H23.09a.75.75,0,0,1,0-1.5h1.22a.75.75,0,1,1,0,1.5Z"/><path class="cls-1" d="M24.06,41a.76.76,0,0,1-.75-.75V33a.75.75,0,0,1,1.5,0v7.27A.75.75,0,0,1,24.06,41Z"/><path class="cls-1" d="M24.06,6.42a.76.76,0,0,1-.75-.75V3a.75.75,0,1,1,1.5,0V5.67A.75.75,0,0,1,24.06,6.42Z"/><path class="cls-1" d="M31.1,44.05a5.84,5.84,0,0,1-4.81-2A2.71,2.71,0,0,0,24.06,41a2.63,2.63,0,0,0-2.18,1.08,5.77,5.77,0,0,1-4.86,2,.75.75,0,1,1,0-1.5A4.36,4.36,0,0,0,20.81,41a4.06,4.06,0,0,1,3.25-1.54A4.19,4.19,0,0,1,27.36,41a4.37,4.37,0,0,0,3.74,1.54.75.75,0,1,1,0,1.5Z"/></svg>