<svg id="圖層_1" data-name="圖層 1" xmlns="http://www.w3.org/2000/svg" viewBox="0 0 48 48"><defs><style>.cls-1{fill:#555;}</style></defs><title>icon-music</title><g id="_6" data-name="6"><path class="cls-1" d="M35.51,44.75a6,6,0,0,1-1.95-.33l-.44-.15a.74.74,0,0,1-.47-1,.75.75,0,0,1,1-.47l.45.15a4.41,4.41,0,0,0,3.47-.23A4.67,4.67,0,0,0,39.89,40l1.33-4.08a4.77,4.77,0,0,0-2.92-6l-.38-.13a.75.75,0,0,1,.48-1.42l.39.13a6.3,6.3,0,0,1,3.86,7.9l-1.34,4.09a6.18,6.18,0,0,1-3.12,3.64A6,6,0,0,1,35.51,44.75Z"/><path class="cls-1" d="M33.11,44.23h0l-1.54-.1a2.61,2.61,0,0,1-2-1.07,2.83,2.83,0,0,1-.39-2.52L33,28.9a2.84,2.84,0,0,1,.79-1.21A2.7,2.7,0,0,1,37,27.48l1.39.9a.76.76,0,0,1,.3.87L33.82,43.72A.76.76,0,0,1,33.11,44.23Zm2.38-15.7a1.13,1.13,0,0,0-.75.27,1.36,1.36,0,0,0-.36.57L30.58,41a1.32,1.32,0,0,0,.18,1.19,1.15,1.15,0,0,0,.86.45h0l1,.06,4.51-13.37-.9-.58A1.3,1.3,0,0,0,35.49,28.53Z"/><path class="cls-1" d="M12.5,44.75a5.91,5.91,0,0,1-2.68-.64A6.13,6.13,0,0,1,6.7,40.48L5.36,36.39a6.3,6.3,0,0,1,3.86-7.9l.56-.19a.75.75,0,0,1,1,.47.74.74,0,0,1-.47.95l-.55.19a4.79,4.79,0,0,0-2.92,6L8.12,40a4.67,4.67,0,0,0,2.37,2.76A4.41,4.41,0,0,0,14,43l.7-.23a.74.74,0,0,1,.95.46.75.75,0,0,1-.46,1l-.7.23A6,6,0,0,1,12.5,44.75Z"/><path class="cls-1" d="M14.9,44.23a.76.76,0,0,1-.71-.51L9.31,29.25a.76.76,0,0,1,.31-.87l1.38-.9a2.7,2.7,0,0,1,3.27.21,2.75,2.75,0,0,1,.79,1.21l3.8,11.63a2.83,2.83,0,0,1-.39,2.52,2.61,2.61,0,0,1-2,1.07l-1.54.1Zm-4-14.91,4.51,13.37,1-.06h0a1.15,1.15,0,0,0,.86-.45A1.32,1.32,0,0,0,17.43,41l-3.8-11.62a1.27,1.27,0,0,0-.36-.57,1.21,1.21,0,0,0-1.45-.06Z"/><path class="cls-1" d="M6.24,32.85a.75.75,0,0,1-.7-.48,21.46,21.46,0,0,1-1.49-7.91c0-11.89,8.76-21.21,20-21.21s20,9.32,20,21.21a21.57,21.57,0,0,1-1.48,7.88.75.75,0,0,1-1.39-.55,20,20,0,0,0,1.37-7.33c0-11-8.11-19.71-18.45-19.71S5.55,13.41,5.55,24.46a20,20,0,0,0,1.39,7.36.76.76,0,0,1-.43,1A.86.86,0,0,1,6.24,32.85Z"/><path class="cls-1" d="M39.18,30.12a.76.76,0,0,1-.21,0,.74.74,0,0,1-.51-.93,16.53,16.53,0,0,0,.67-4.7c0-9.3-6.5-16.31-15.13-16.31s-15.13,7-15.13,16.31A16.59,16.59,0,0,0,9.49,29,.75.75,0,1,1,8,29.38a18.42,18.42,0,0,1-.67-4.92C7.37,14.31,14.52,6.65,24,6.65s16.63,7.66,16.63,17.81a18.31,18.31,0,0,1-.73,5.12A.75.75,0,0,1,39.18,30.12Z"/><path class="cls-1" d="M15.52,15a2.47,2.47,0,0,1-1.15-.28l-2.3-1.19a.75.75,0,0,1-.32-1,.74.74,0,0,1,1-.32l2.3,1.19a1,1,0,0,0,1.11-.12,12.34,12.34,0,0,1,15.63,0,1,1,0,0,0,1.11.13l2.32-1.19a.74.74,0,0,1,1,.32.75.75,0,0,1-.32,1l-2.33,1.19a2.5,2.5,0,0,1-2.72-.29,10.85,10.85,0,0,0-13.76,0A2.55,2.55,0,0,1,15.52,15Z"/></g></svg>